<svg width="200" height="200" viewBox="0 0 200 200" fill="none" xmlns="http://www.w3.org/2000/svg">
<path d="M94.8833 184.37V182.58C89.0606 182.493 83.1509 179.959 77.1543 173.441C73.7649 169.791 67.5764 162.312 60.1025 151.622C56.6794 146.915 51.319 142.739 46.1083 140.308C53.9426 140.672 63.4577 139.337 68.1709 134.618C72.6227 130.577 75.7223 124.816 75.9187 118.234C76.0419 114.106 75.3841 110.834 72.5759 105.629C66.3594 96.4763 58.5004 95.5527 48.3383 95.5527H23.1193L22.792 98.6683L37.5254 98.7431C41.4365 98.6562 45.9184 98.6759 48.6127 98.8497C54.8642 99.5906 57.6081 101.84 60.6139 104.908C64.8695 110.314 67.1425 117.317 64.0568 124.937C61.1995 130.931 58.2803 132.615 55.0558 134.299C51.8313 135.984 47.1962 136.987 42.4788 137.192H35.5697L35.5842 140.438C43.8414 140.5 47.8297 146.117 51.7135 151.749C52.3222 152.618 53.1912 153.834 54.3209 155.399L57.122 159.68C62.4235 167.328 65.4012 171.346 65.923 171.954C67.2266 173.519 68.4431 174.822 69.573 175.865C77.8188 183.653 84.5139 184.177 94.8833 184.37Z" fill="url(#paint0_linear_1725_7190)"/>
<path d="M66.9577 29.2648H64.7784V28.8892C64.8767 22.0127 60.9437 18.3293 56.3067 18.3176L46.7213 18.2936L33.3235 18.3448L33.3175 51.7925V55.7046L33.2761 98.7397L13.0582 98.6884L13.0096 96.9921L14.705 96.9776C19.3376 96.9391 23.0512 93.823 23.0512 88.2704L23.0404 24.7627C23.0404 20.5066 19.5837 16.7055 14.6943 16.6815L13 16.6731L13.0582 15.0274H51.2681L66.7866 15L66.9577 29.2648Z" fill="url(#paint1_linear_1725_7190)"/>
<path d="M43.7522 59.9107C40.6223 59.9107 38.085 57.3734 38.085 54.2434C38.085 51.1135 40.6223 48.5762 43.7522 48.5762C46.8822 48.5762 49.4195 51.1135 49.4195 54.2434C49.4195 57.3734 46.8822 59.9107 43.7522 59.9107Z" fill="url(#paint2_linear_1725_7190)"/>
<path d="M107.713 72.3882V76.1362H112.464V77.7072H107.713V84.2566H105.858V70.7225H114.225V72.3882H107.713ZM123.307 84.2566L119.702 78.4456C119.288 78.4456 118.635 78.4139 117.742 78.3541V84.2566H115.888V70.7099C115.957 70.7099 116.436 70.6878 117.326 70.6405C118.219 70.5931 118.865 70.5711 119.273 70.5711C122.531 70.5711 124.159 71.8677 124.159 74.4579C124.159 75.3097 123.897 76.0763 123.374 76.7577C122.85 77.4392 122.229 77.8618 121.506 78.0292L125.428 84.2566H123.307ZM117.742 72.3661V76.783C118.184 76.8429 118.616 76.8744 119.036 76.8744C120.143 76.8744 120.948 76.6947 121.452 76.3381C121.957 75.9784 122.21 75.3381 122.21 74.4169C122.21 73.6565 121.938 73.1106 121.399 72.7764C120.856 72.4419 120.001 72.2748 118.831 72.2748C118.648 72.2748 118.285 72.3063 117.742 72.3661ZM134.513 84.2566L133.577 81.3985H128.513L127.51 84.2566H125.447L130.955 70.5332H131.447L136.558 84.2566H134.513ZM131.116 74.092L129.005 80.0355H133.046L131.116 74.092ZM146.738 84.4458L139.735 74.5462V84.2566H137.974V70.7225H138.712L145.527 80.0922V70.7225H147.287V84.4458H146.738ZM157.531 84.2566L153.714 78.0292L151.909 80.5877V84.2566H150.054V70.7225H151.909V78.089L156.944 70.7225H159.007L154.953 76.5904L159.575 84.2566H157.531ZM160.951 84.2566V70.7225H162.806V82.5909H168.92V84.2566H160.951ZM170.857 84.2566V70.7225H172.712V84.2566H170.857ZM184.567 84.4458L177.564 74.5462V84.2566H175.803V70.7225H176.542L183.356 80.0922V70.7225H185.116V84.4458H184.567ZM106.18 106.236V92.702H108.035V106.236H106.18ZM120.39 106.425L113.386 96.5258V106.236H111.626V92.702H112.364L119.178 102.072V92.702H120.938V106.425H120.39ZM129.144 94.3677V106.236H127.29V94.3677H122.974V92.702H133.65V94.3677H129.144ZM137.546 94.3677V98.1157H141.919V99.6868H137.546V104.57H143.679V106.236H135.691V92.702H143.679V94.3677H137.546ZM153.844 106.236L150.238 100.425C149.825 100.425 149.172 100.394 148.279 100.334V106.236H146.424V92.6895C146.493 92.6895 146.973 92.6674 147.863 92.62C148.756 92.5727 149.402 92.5506 149.809 92.5506C153.068 92.5506 154.696 93.8473 154.696 96.4374C154.696 97.2892 154.434 98.0558 153.91 98.7373C153.387 99.4188 152.765 99.8414 152.043 100.009L155.964 106.236H153.844ZM148.279 94.3457V98.7626C148.721 98.8224 149.153 98.8539 149.573 98.8539C150.68 98.8539 151.484 98.6743 151.989 98.3177C152.494 97.958 152.746 97.3177 152.746 96.3964C152.746 95.6359 152.475 95.0902 151.936 94.756C151.393 94.4215 150.538 94.2544 149.368 94.2544C149.185 94.2544 148.822 94.2858 148.279 94.3457ZM158.167 106.236V92.702H160.022V106.236H158.167ZM162.969 99.3493C162.969 97.3901 163.461 95.7527 164.445 94.434C165.426 93.1154 166.754 92.4561 168.423 92.4561C170.304 92.4561 171.745 93.0618 172.748 94.2764C173.749 95.4909 174.25 97.182 174.25 99.3493C174.25 101.573 173.749 103.315 172.742 104.574C171.739 105.832 170.297 106.463 168.423 106.463C166.717 106.463 165.382 105.798 164.417 104.466C163.451 103.138 162.969 101.432 162.969 99.3493ZM164.918 99.3493C164.918 100.901 165.224 102.195 165.836 103.236C166.448 104.277 167.313 104.798 168.427 104.798C169.685 104.798 170.647 104.321 171.31 103.365C171.969 102.413 172.301 101.072 172.301 99.3493C172.301 95.8632 171.01 94.1218 168.427 94.1218C167.281 94.1218 166.411 94.5886 165.814 95.5255C165.218 96.4627 164.918 97.7371 164.918 99.3493ZM184.381 106.236L180.775 100.425C180.361 100.425 179.708 100.394 178.816 100.334V106.236H176.961V92.6895C177.03 92.6895 177.509 92.6674 178.399 92.62C179.292 92.5727 179.939 92.5506 180.346 92.5506C183.605 92.5506 185.232 93.8473 185.232 96.4374C185.232 97.2892 184.97 98.0558 184.447 98.7373C183.923 99.4188 183.302 99.8414 182.579 100.009L186.501 106.236H184.381ZM178.816 94.3457V98.7626C179.257 98.8224 179.689 98.8539 180.109 98.8539C181.216 98.8539 182.021 98.6743 182.525 98.3177C183.03 97.958 183.283 97.3177 183.283 96.3964C183.283 95.6359 183.011 95.0902 182.472 94.756C181.929 94.4215 181.074 94.2544 179.904 94.2544C179.721 94.2544 179.358 94.2858 178.816 94.3457ZM108.584 128.216H105.858V114.679C107.597 114.618 108.707 114.587 109.196 114.587C111.086 114.587 112.584 115.161 113.689 116.309C114.79 117.458 115.342 118.988 115.342 120.896C115.342 125.777 113.089 128.216 108.584 128.216ZM107.713 116.344V126.458C108.127 126.518 108.634 126.55 109.243 126.55C110.534 126.55 111.55 126.064 112.285 125.096C113.023 124.127 113.392 122.78 113.392 121.054C113.392 117.852 111.957 116.253 109.086 116.253C108.915 116.253 108.458 116.284 107.713 116.344ZM123.527 116.348V120.096H127.899V121.667H123.527V126.55H129.66V128.216H121.672V114.682H129.66V116.348H123.527ZM135.41 127.592L136.085 125.888C136.432 126.14 136.864 126.352 137.378 126.522C137.896 126.692 138.356 126.778 138.763 126.778C139.486 126.778 140.066 126.579 140.505 126.184C140.943 125.79 141.164 125.288 141.164 124.68C141.164 124.222 141.041 123.799 140.798 123.408C140.555 123.017 139.94 122.591 138.959 122.127L137.864 121.619C136.937 121.187 136.29 120.676 135.924 120.086C135.555 119.493 135.372 118.78 135.372 117.95C135.372 116.938 135.732 116.099 136.448 115.433C137.164 114.767 138.082 114.436 139.208 114.436C140.707 114.436 141.751 114.679 142.338 115.168L141.792 116.783C141.546 116.603 141.167 116.427 140.662 116.259C140.155 116.092 139.688 116.007 139.255 116.007C138.625 116.007 138.129 116.187 137.77 116.543C137.407 116.9 137.227 117.36 137.227 117.922C137.227 118.266 137.293 118.581 137.423 118.865C137.552 119.149 137.732 119.386 137.962 119.575C138.192 119.768 138.669 120.036 139.382 120.38L140.492 120.91C141.42 121.345 142.066 121.869 142.442 122.474C142.814 123.083 143 123.853 143 124.79C143 125.809 142.59 126.67 141.773 127.38C140.956 128.09 139.861 128.443 138.492 128.443C137.29 128.443 136.262 128.159 135.41 127.592ZM149.646 128.216V114.682H151.501V128.216H149.646ZM168.185 115.61L167.419 117.133C166.488 116.446 165.576 116.102 164.683 116.102C163.267 116.102 162.15 116.6 161.33 117.6C160.513 118.597 160.103 119.919 160.103 121.566C160.103 123.13 160.503 124.389 161.308 125.345C162.109 126.301 163.201 126.778 164.586 126.778C165.57 126.778 166.365 126.481 166.974 125.891V122.727H165.1V121.156H168.829V127.049C168.337 127.468 167.649 127.803 166.769 128.058C165.885 128.314 165.031 128.443 164.198 128.443C162.33 128.443 160.857 127.809 159.775 126.544C158.693 125.276 158.153 123.591 158.153 121.49C158.153 119.395 158.746 117.695 159.932 116.392C161.119 115.089 162.721 114.436 164.737 114.436C166.147 114.436 167.299 114.827 168.185 115.61ZM184.567 128.405L177.563 118.506V128.216H175.803V114.682H176.541L183.355 124.052V114.682H185.116V128.405H184.567Z" fill="url(#paint3_linear_1725_7190)"/>
<defs>
<linearGradient id="paint0_linear_1725_7190" x1="116.793" y1="182.3" x2="172.687" y2="251.325" gradientUnits="userSpaceOnUse">
<stop stop-color="#909395"/>
<stop offset="1" stop-color="white"/>
</linearGradient>
<linearGradient id="paint1_linear_1725_7190" x1="339.642" y1="-96.2409" x2="295.266" y2="-167.256" gradientUnits="userSpaceOnUse">
<stop stop-color="#929194"/>
<stop offset="1" stop-color="white"/>
</linearGradient>
<linearGradient id="paint2_linear_1725_7190" x1="103.701" y1="139.334" x2="111.137" y2="147.889" gradientUnits="userSpaceOnUse">
<stop stop-color="#D6D6D7"/>
<stop offset="1" stop-color="white"/>
</linearGradient>
<linearGradient id="paint3_linear_1725_7190" x1="331.199" y1="231.06" x2="361.887" y2="280.17" gradientUnits="userSpaceOnUse">
<stop stop-color="#909395"/>
<stop offset="1" stop-color="white"/>
</linearGradient>
</defs>
</svg>
